<?xml version="1.0" encoding="UTF-8" standalone="no"?>
<svg
   xmlns:dc="http://purl.org/dc/elements/1.1/"
   xmlns:cc="http://creativecommons.org/ns#"
   xmlns:svg="http://www.w3.org/2000/svg"
   xmlns="http://www.w3.org/2000/svg"
   viewBox="0 0 250 350"
   version="1.1"
   id="svg3046"
   width="100%"
   height="100%"
>
  <defs
     id="defs3064" />
  <rect
     x="0"
     y="0"
     width="250"
     height="350"
     id="rect3048"
     stroke-width="2"
     stroke="black"
     fill="none" />
 <text
     xml:space="preserve"
     style="font-size:260px;
            font-style:normal;
            font-variant:normal;
            font-weight:500;
            font-stretch:normal;
            text-align:start;
            line-height:125%;
            letter-spacing:0px;
            word-spacing:0px;
            writing-mode:lr-tb;
            text-anchor:start;
            fill:#00bc00;
            fill-opacity:1;
            stroke:#000000;
            font-family:Source Code Pro;
            stroke-opacity:1"
     x="0"
     y="235"
     id="text3113"
     transform="scale(0.85,1.2)"><tspan
                                     id="tspan3117"
       x="-10"
       y="235">10</tspan></text>
  <path
     id="path3077"
     d="m 20.121951,305.48781 v 14.63415 H 5.4878049 v 9.75609 H 20.121951 v 14.63415 h 9.756098 v -14.63415 h 14.634146 v -9.75609 H 29.878049 v -14.63415 h -9.756098 z"
     style="fill:#00bc00;fill-opacity:1;stroke:#000000;stroke-width:0.97560966;stroke-opacity:1" />
  <path
     id="path3077-3"
     d="M 20.121951,5.4878047 V 20.121951 H 5.4878049 v 9.756098 H 20.121951 v 14.634146 h 9.756098 V 29.878049 H 44.512195 V 20.121951 H 29.878049 V 5.4878047 h -9.756098 z"
     style="fill:#00bc00;stroke:#000000;stroke-width:0.97560972000000001;stroke-opacity:1;fill-opacity:1" />
  <path
     id="path3077-7"
     d="m 220.12196,305.48781 v 14.63415 H 205.4878 v 9.75609 h 14.63416 v 14.63415 h 9.75608 v -14.63415 h 14.63416 v -9.75609 h -14.63416 v -14.63415 h -9.75608 z"
     style="fill:#00bc00;fill-opacity:1;stroke:#000000;stroke-width:0.97560966;stroke-opacity:1" />
  <path
     id="path3077-1"
     d="M 220.12196,5.4878047 V 20.121951 H 205.4878 v 9.756098 h 14.63416 v 14.634146 h 9.75608 V 29.878049 H 244.5122 V 20.121951 H 229.87804 V 5.4878047 h -9.75608 z"
     style="fill:#00bc00;fill-opacity:1;stroke:#000000;stroke-width:0.97560972;stroke-opacity:1" />
</svg>
