<?xml version="1.0" encoding="UTF-8" standalone="no"?>
<svg
   xmlns:dc="http://purl.org/dc/elements/1.1/"
   xmlns:svg="http://www.w3.org/2000/svg"
   xmlns="http://www.w3.org/2000/svg"
   viewBox="0 0 250 350"
   version="1.1"
   id="svg3046"
   width="100%"
   height="100%">
  <defs
     id="defs3064" />
  <rect
     x="0"
     y="0"
     width="250"
     height="350"
     id="rect3048"
     stroke-width="2"
     stroke="black"
     fill="none" />
  <text
     xml:space="preserve"
     style="font-size:260px;
            font-style:normal;
            font-variant:normal;
            font-weight:500;
            font-stretch:normal;
            text-align:start;
            line-height:125%;
            letter-spacing:0px;
            word-spacing:0px;
            writing-mode:lr-tb;
            text-anchor:start;
            fill:#ffff00;
            fill-opacity:1;
            stroke:#000000;
            font-family:Source Code Pro;
            stroke-opacity:1"
     x="62.5"
     y="235"
     id="text3143"
     transform="scale(0.85,1.2)">
    <tspan id="tspan3145"
           x="62.5"
           y="235">1</tspan></text>
  <path

     style="fill:#ffff00;fill-opacity:1;fill-rule:nonzero;stroke:#000000;stroke-width:1;stroke-miterlimit:0.1;stroke-opacity:1;stroke-dasharray:none"
     id="path3001"
     d="m -293.63604,172.12132 -16.26801,-10.94139 -16.07783,11.21899 5.37879,-18.85288 -15.63822,-11.82407 19.59229,-0.71033 6.41288,-18.52666 6.72991,18.41387 19.6016,0.37396 -15.43298,12.09073 z"
     transform="matrix(0.74961598,0,0,0.78600111,257.43565,209.11046)" />
  <path
     style="fill:#ffff00;fill-opacity:1;fill-rule:nonzero;stroke:#000000;stroke-width:1;stroke-miterlimit:0.1;stroke-opacity:1;stroke-dasharray:none"
     id="path3001-0"
     d="m -293.63604,172.12132 -16.26801,-10.94139 -16.07783,11.21899 5.37879,-18.85288 -15.63822,-11.82407 19.59229,-0.71033 6.41288,-18.52666 6.72991,18.41387 19.6016,0.37396 -15.43298,12.09073 z"
     transform="matrix(0.74961597,0,0,0.78600111,257.43565,-90.889535)" />
  <path
     style="fill:#ffff00;fill-opacity:1;fill-rule:nonzero;stroke:#000000;stroke-width:1;stroke-miterlimit:0.1;stroke-opacity:1;stroke-dasharray:none"
     id="path3001-2"
     d="m -293.63604,172.12132 -16.26801,-10.94139 -16.07783,11.21899 5.37879,-18.85288 -15.63822,-11.82407 19.59229,-0.71033 6.41288,-18.52666 6.72991,18.41387 19.6016,0.37396 -15.43298,12.09073 z"
     transform="matrix(0.74961598,0,0,0.78600111,457.43565,209.11046)" />
  <path
     style="fill:#ffff00;fill-opacity:1;fill-rule:nonzero;stroke:#000000;stroke-width:1;stroke-miterlimit:0.1;stroke-opacity:1;stroke-dasharray:none"
     id="path3001-3"
     d="m -293.63604,172.12132 -16.26801,-10.94139 -16.07783,11.21899 5.37879,-18.85288 -15.63822,-11.82407 19.59229,-0.71033 6.41288,-18.52666 6.72991,18.41387 19.6016,0.37396 -15.43298,12.09073 z"
     transform="matrix(0.74961598,0,0,0.78600111,457.43565,-90.889535)" />
</svg>
